<!-- Created with Inkscape (http://www.inkscape.org/) --> 
<svg 
   xmlns:dc="http://purl.org/dc/elements/1.1/"
   xmlns:cc="http://web.resource.org/cc/"
   xmlns:rdf="http://www.w3.org/1999/02/22-rdf-syntax-ns#"
   xmlns:svg="http://www.w3.org/2000/svg"
   xmlns="http://www.w3.org/2000/svg"
   xmlns:xlink="http://www.w3.org/1999/xlink"
   xmlns:sodipodi="http://sodipodi.sourceforge.net/DTD/sodipodi-0.dtd"
   xmlns:inkscape="http://www.inkscape.org/namespaces/inkscape"
   version="1.0"
   width="363.22729"
   height="252.70267"
   id="svg2"
   sodipodi:version="0.32"
   inkscape:version="0.45.1"
   sodipodi:docname="emeza_grasshopper.svg"
   sodipodi:docbase="/home/radbrad/Desktop"
   inkscape:output_extension="org.inkscape.output.svg.inkscape"> 
  <metadata 
     id="metadata43"> 
    <rdf:RDF> 
      <cc:Work 
         rdf:about=""> 
        <dc:format>image/svg+xml</dc:format> 
        <dc:type 
           rdf:resource="http://purl.org/dc/dcmitype/StillImage" /> 
      </cc:Work> 
    </rdf:RDF> 
  </metadata> 
  <sodipodi:namedview 
     inkscape:window-height="628"
     inkscape:window-width="910"
     inkscape:pageshadow="2"
     inkscape:pageopacity="0.0"
     guidetolerance="10.0"
     gridtolerance="10.0"
     objecttolerance="10.0"
     borderopacity="1.0"
     bordercolor="#666666"
     pagecolor="#ffffff"
     id="base"
     inkscape:zoom="1.138858"
     inkscape:cx="87.872235"
     inkscape:cy="109.62655"
     inkscape:window-x="2046"
     inkscape:window-y="223"
     inkscape:current-layer="svg2" /> 
  <defs 
     id="defs4"> 
    <linearGradient 
       id="linearGradient3008"> 
      <stop 
         style="stop-color:#677164;stop-opacity:1"
         offset="0"
         id="stop3010" /> 
      <stop 
         style="stop-color:#677164;stop-opacity:0"
         offset="1"
         id="stop3012" /> 
    </linearGradient> 
    <linearGradient 
       id="linearGradient2996"> 
      <stop 
         style="stop-color:#6788d5;stop-opacity:1"
         offset="0"
         id="stop2998" /> 
      <stop 
         style="stop-color:#6788d5;stop-opacity:0"
         offset="1"
         id="stop3000" /> 
    </linearGradient> 
    <linearGradient 
       id="linearGradient2988"> 
      <stop 
         style="stop-color:#6788d5;stop-opacity:1"
         offset="0"
         id="stop2990" /> 
      <stop 
         style="stop-color:#6788d5;stop-opacity:0"
         offset="1"
         id="stop2992" /> 
    </linearGradient> 
    <radialGradient 
       cx="334.6929"
       cy="391.12094"
       r="3.2026069"
       fx="334.6929"
       fy="391.12094"
       id="radialGradient2994"
       xlink:href="#linearGradient2988"
       gradientUnits="userSpaceOnUse"
       gradientTransform="matrix(-2.170414e-6,1,-3.548427,-7.701555e-6,1722.558,56.43101)" /> 
    <radialGradient 
       cx="309.45901"
       cy="391.25256"
       r="3.2026069"
       fx="309.45901"
       fy="391.25256"
       id="radialGradient3002"
       xlink:href="#linearGradient2996"
       gradientUnits="userSpaceOnUse"
       gradientTransform="matrix(-1.709685,-3.31813e-5,2.413649e-5,-1.243647,838.5271,877.8428)" /> 
    <radialGradient 
       cx="354.55255"
       cy="510.59464"
       r="114.61711"
       fx="354.55255"
       fy="510.59464"
       id="radialGradient3016"
       xlink:href="#linearGradient3008"
       gradientUnits="userSpaceOnUse"
       gradientTransform="matrix(0.830929,-1.058518e-2,1.343928e-3,0.105497,54.23417,456.8927)" /> 
    <filter 
       inkscape:collect="always"
       x="-0.01342433"
       width="1.0268487"
       y="-0.11310014"
       height="1.2262003"
       id="filter3299"> 
      <feGaussianBlur 
         inkscape:collect="always"
         stdDeviation="1.9737738"
         id="feGaussianBlur3301" /> 
    </filter> 
  </defs> 
  <path 
     style="opacity:0.55494504;fill:#000000;fill-opacity:0.99176953;fill-rule:evenodd;stroke:#000c00;stroke-width:0.07994947;stroke-linecap:butt;stroke-linejoin:miter;stroke-miterlimit:4;stroke-opacity:1;filter:url(#filter3299)"
     d="M 346.95456,198.54243 C 346.02864,198.56505 344.65713,198.70144 342.97856,198.92304 C 341.50638,199.08748 340.13159,199.30067 338.70354,199.56097 C 332.43847,200.56357 324.04663,202.15144 316.38059,203.64586 C 304.91591,205.8808 294.43625,206.77985 274.04783,209.74103 C 259.75262,211.61925 245.84939,213.60172 246.50323,214.09932 C 245.27655,214.30775 244.03128,214.52222 242.75471,214.74261 C 240.8112,215.07814 239.26706,215.4215 238.0575,215.77187 C 237.16897,213.69573 235.55596,211.23892 232.80308,210.09484 C 231.88735,209.71426 230.95667,209.38324 230.04067,209.08702 C 232.15204,209.76159 233.96961,210.65573 235.13396,211.81028 C 235.62903,212.30118 236.57368,214.21424 237.4063,215.97022 C 234.78811,216.82331 234.15476,217.70192 234.91626,218.54338 C 231.52688,218.6359 229.99345,218.68586 227.63535,219.18667 C 219.9338,218.3478 180.0013,216.40527 45.698288,229.49538 C 186.31679,216.12858 222.90441,218.74171 226.10087,219.52975 C 226.10961,219.53191 226.11781,219.5331 226.1272,219.53512 C 225.69583,219.64394 225.18421,219.78325 224.67837,219.92108 C 224.26497,220.00384 223.89562,220.1048 223.63078,220.21057 C 223.53036,220.23882 223.44655,220.25631 223.34299,220.28562 C 221.44481,220.82287 220.5965,222.00024 220.77139,223.28764 C 220.31617,223.54697 220.14637,223.83155 220.2216,224.12392 L 176.68825,229.48466 L 161.44625,238.41566 L 147.24694,240.05605 L 162.75662,238.8606 L 175.12789,232.1007 L 170.35633,235.9658 L 164.16192,240.01853 L 168.17071,239.56823 C 168.17071,239.56823 167.45647,237.71916 174.03878,235.15633 C 179.66164,232.96706 180.27278,230.1762 180.27278,230.1762 L 221.44905,225.16926 C 221.5623,225.22473 221.70048,225.28071 221.82773,225.33544 C 221.95661,225.68556 220.16849,226.70446 220.00132,227.25459 C 219.90497,227.57171 225.73662,228.56013 226.08084,229.41497 C 226.15212,229.59199 228.03101,228.56564 228.19501,228.40715 C 229.35934,228.57038 230.47373,228.74826 231.13108,228.95394 C 231.21193,229.02911 231.34147,229.09503 231.53779,229.15765 C 232.06849,229.63576 228.55037,229.88413 230.2855,230.01001 C 230.82537,230.04918 232.19843,229.53248 232.84579,229.16302 C 233.31976,228.89251 233.53666,228.87429 233.06071,228.79313 C 233.28818,228.63027 233.50933,228.44701 233.71465,228.25169 C 238.22769,228.07476 241.43366,227.66929 244.02528,227.06696 C 244.97728,227.25427 245.87577,227.54423 244.92024,228.0319 C 243.41317,228.80105 240.20012,228.691 238.5647,229.13085 C 236.9293,229.5707 235.63426,229.8687 238.52256,229.51683 C 240.86931,229.23092 243.81177,228.91499 245.41751,228.27313 C 244.93778,228.80256 244.1782,229.4023 242.92462,230.10115 C 236.96699,233.42239 227.21511,236.80776 223.05271,238.96782 C 218.89032,241.12788 220.48919,240.31178 224.84933,238.95173 C 229.20945,237.5917 230.11991,235.91165 240.57442,232.65822 C 245.257,231.20101 250.53665,230.10275 255.14908,229.14693 L 266.3817,238.42103 L 270.48696,238.61401 L 270.07327,239.16617 C 270.07327,239.16617 278.44281,240.37085 279.17623,239.97564 C 279.74689,239.66815 273.43748,238.94102 273.43749,238.94101 L 273.60501,238.75875 L 277.71028,238.95173 L 273.82672,238.51752 L 278.95239,232.87265 C 278.95239,232.87265 281.79199,230.91408 286.29878,230.01537 C 290.14763,229.24787 287.7733,228.84463 285.92796,228.61622 L 286.00032,228.6055 C 286.62313,228.52223 282.18223,227.77916 277.1558,226.86861 C 288.31032,228.42274 298.66594,229.4202 309.21314,230.42279 C 309.53791,230.45366 310.12424,230.45881 310.81896,230.44424 C 310.8518,230.46734 310.89773,230.49181 311.00501,230.51392 C 313.52273,231.03303 309.4733,239.59503 309.4733,239.59503 L 315.93004,240.01853 L 311.84161,239.05895 C 311.84161,239.05895 315.54024,230.59769 314.56816,230.20836 C 314.55344,230.20246 314.53764,230.19768 314.52041,230.19228 C 314.87799,230.129 314.96929,230.06135 314.57769,229.99393 C 303.68987,228.11948 293.04137,226.75129 281.55298,225.48555 C 282.32742,225.46958 283.10844,225.4405 283.94014,225.40513 C 309.02399,224.33843 332.88893,221.56684 332.88893,221.56684 L 352.95988,220.71447 C 352.95988,220.71447 345.70738,235.76599 343.57069,239.05895 C 342.87154,240.13643 348.17409,240.31713 347.77077,238.87669 C 346.19831,233.26094 358.22585,220.39284 358.22585,220.39284 C 358.22585,220.39284 358.78499,218.46745 353.80785,219.11162 C 342.22415,220.61084 333.02639,221.24519 302.0807,221.24519 C 290.08384,221.24519 288.39656,222.41923 275.44001,222.98744 C 290.36426,221.99387 293.62252,219.91382 295.24297,218.24317 C 295.93774,218.1807 296.31035,218.11606 296.30056,218.04482 C 296.17708,217.14674 303.12411,214.01903 315.49949,210.14844 C 327.41466,206.74028 340.34461,203.53425 347.68642,199.37871 C 348.79529,198.75108 348.41487,198.50675 346.95456,198.54243 z M 230.04067,209.08702 C 224.1896,207.19492 218.38616,206.94124 212.94345,207.35014 C 207.32298,207.7724 206.96192,209.61719 207.39963,209.81072 C 207.83732,210.00426 205.53216,207.52347 215.77811,207.25901 C 219.35675,207.16663 225.39567,207.60298 230.04067,209.08702 z M 263.8615,223.54495 C 264.07287,223.62489 264.34308,223.72352 264.7422,223.84516 C 264.48652,223.82584 264.22087,223.80891 263.97871,223.79155 C 263.89434,223.72237 263.84273,223.65463 263.84842,223.5932 C 263.85002,223.57608 263.8604,223.56181 263.8615,223.54495 z M 252.47192,223.93092 C 252.40494,224.05587 252.35399,224.17649 252.38695,224.29546 C 252.01805,224.33415 251.64635,224.37733 251.29963,224.42412 C 251.33465,224.40789 251.37141,224.39218 251.4065,224.37587 C 251.78132,224.2249 252.15337,224.07835 252.47192,223.93092 z M 220.4822,224.52061 C 220.50654,224.54594 220.54192,224.5703 220.56952,224.59566 L 213.5127,225.43729 L 220.4822,224.52061 z M 222.4191,225.78038 C 223.15753,226.37156 224.13545,226.90901 225.36669,227.335 C 224.42694,227.37762 223.50409,227.48575 223.79109,227.68881 C 224.0919,227.90163 226.18868,228.12398 228.14235,228.39643 C 224.30515,229.49427 220.09707,226.96202 222.35336,225.81791 C 222.3791,225.80486 222.3966,225.79314 222.4191,225.78038 z M 246.4641,226.38615 C 246.36742,226.61132 246.27014,226.86259 246.15437,227.13129 C 245.94653,226.9647 245.71706,226.80419 245.757,226.6113 C 246.00394,226.5386 246.22598,226.46293 246.4641,226.38615 z M 263.76709,227.1849 C 272.21089,228.70812 279.4605,229.47936 279.62136,229.45785 L 280.6922,229.31311 C 280.54899,229.46162 280.48695,229.57043 280.48695,229.57043 L 275.78478,231.59143 L 270.81862,238.18515 L 268.06722,237.87959 L 263.03649,234.16995 L 258.36941,228.46612 C 260.4749,228.01898 262.3274,227.60287 263.76709,227.1849 z M 226.11402,227.57624 C 227.60429,228.00076 229.40203,228.27233 231.51335,228.29994 C 231.39273,228.38565 231.31171,228.46298 231.23898,228.53044 C 229.49922,228.33189 227.22464,228.21597 226.00445,227.96757 C 225.29169,227.82246 225.63577,227.68669 226.11402,227.57624 z M 44.94651,229.56507 C 32.976782,230.70473 20.262512,231.95764 6.7478119,233.33904 C 4.6307549,233.55543 5.5518419,233.56675 6.9552539,233.41945 C 20.391002,232.00926 33.03282,230.72816 44.94651,229.56507 z "
     id="path2197"
     transform="matrix(1.0000306,0,0,0.7482028,-5.5641078e-3,60.51738)" /> 
  <g 
     transform="translate(-81.696533,-203.05225)"
     id="layer1"> 
    <g 
       transform="translate(-19.43951,-61.85299)"
       id="g3018"> 
      <path 
         d="M 345.36924,439.75467 L 366.51118,497.5841 L 378.32579,500.69321 L 367.67939,494.44374 L 359.26269,472.81791 L 346.61288,430.42734 L 345.36924,439.75467 z "
         style="fill:#009b00;fill-opacity:0.99176953;fill-rule:evenodd;stroke:#000c00;stroke-width:0.193;stroke-linecap:butt;stroke-linejoin:miter;stroke-miterlimit:4;stroke-dasharray:none;stroke-opacity:1"
         id="path2882" /> 
      <path 
         d="M 337.66589,416.93039 C 332.3804,423.30406 338.21828,430.42734 335.42008,449.082 C 332.51595,468.44292 325.85729,488.17676 323.68091,500.76865 C 321.50453,513.36054 322.36183,508.62144 325.47094,500.69321 C 328.58005,492.76498 327.95823,482.97128 335.42009,464.00572 C 342.88195,445.04016 355.00748,436.1792 355.31839,424.83095 C 355.6293,413.4827 342.95138,410.55672 337.66589,416.93039 z "
         style="fill:#007000;fill-opacity:0.98765432;fill-rule:evenodd;stroke:#000c00;stroke-width:0.29300001;stroke-linecap:butt;stroke-linejoin:miter;stroke-miterlimit:4;stroke-dasharray:none;stroke-opacity:1"
         id="path2878" /> 
      <path 
         d="M 364.64572,419.23455 C 379.25853,427.47369 392.62768,436.06368 406.9296,448.46017 C 408.69165,449.98746 403.34691,451.657 401.95503,450.94746 C 385.26278,442.43818 368.99846,434.00282 348.47835,415.50362 C 339.7329,407.61946 350.03291,410.99541 364.64572,419.23455 z "
         style="fill:#006900;fill-opacity:0.99176953;fill-rule:evenodd;stroke:#000c00;stroke-width:0.29300001;stroke-linecap:butt;stroke-linejoin:miter;stroke-miterlimit:4;stroke-dasharray:none;stroke-opacity:1"
         id="path2874" /> 
      <path 
         d="M 321.11818,359.53966 C 301.99789,382.41864 337.12986,412.98383 353.45292,409.90722 C 383.14492,404.31082 375.2121,378.57535 377.19871,369.13895 C 384.93886,332.37326 406.37624,308.02585 411.90418,269.99731 C 414.03154,255.36241 397.83357,276.46556 384.54401,294.87018 C 371.22792,313.31155 357.49476,316.01212 321.11818,359.53966 z "
         style="fill:#006d00;fill-opacity:0.98353912;fill-rule:evenodd;stroke:#000c00;stroke-width:0.39300001;stroke-linecap:butt;stroke-linejoin:miter;stroke-miterlimit:4;stroke-dasharray:none;stroke-opacity:1"
         id="path1966" /> 
      <path 
         d="M 326.71458,356.43055 C 335.26463,355.1869 344.89106,366.68777 346.61288,359.53965 C 354.24525,327.85398 374.15961,308.71807 369.62029,312.28119 C 355.16293,323.62943 313.71106,358.32197 326.71458,356.43055 z "
         style="fill:#005700;fill-opacity:0.98353912;fill-rule:evenodd;stroke:none;stroke-width:0.99302101;stroke-linecap:butt;stroke-linejoin:miter;stroke-miterlimit:4;stroke-dasharray:none;stroke-opacity:1"
         id="path2856" /> 
      <path 
         d="M 351.58746,339.01953 C 345.21378,354.25416 343.65922,372.13155 367.75482,345.85957 C 376.9452,335.83909 390.90978,325.44323 399.85606,306.14162 C 408.90815,286.61172 415.49396,262.36265 408.05668,266.4995 C 399.15459,271.45112 398.31601,286.19072 363.32589,318.26593 C 347.41931,332.84738 354.34804,332.42108 351.58746,339.01953 z "
         style="fill:#124400;fill-opacity:0.98353912;fill-rule:evenodd;stroke:none;stroke-width:0.99299997;stroke-linecap:butt;stroke-linejoin:miter;stroke-miterlimit:4;stroke-dasharray:none;stroke-opacity:1"
         id="path2858" /> 
      <path 
         d="M 349.13903,369.72192 C 344.90415,357.27394 361.69866,351.45843 369.49684,342.46935 C 385.27567,324.28087 404.70697,299.08013 398.14654,312.98024 C 383.45448,344.10953 376.48941,372.11306 377.70397,378.81613 C 378.15421,381.30097 364.64572,382.08069 351.58746,390.63074 C 344.96477,394.96703 354.26906,384.8011 349.13903,369.72192 z "
         style="fill:#005300;fill-opacity:0.98353912;fill-rule:evenodd;stroke:none;stroke-width:0.99302101;stroke-linecap:butt;stroke-linejoin:miter;stroke-miterlimit:4;stroke-dasharray:none;stroke-opacity:1"
         id="path2860" /> 
      <path 
         d="M 310.08024,411.92753 L 268.63261,445.48685 L 261.59718,497.56505 L 248.9082,507.12587 L 263.3078,500.15004 L 271.37244,448.46017 L 311.16904,413.63815 L 310.08024,411.92753 z "
         style="fill:#005900;fill-opacity:0.98765432;fill-rule:evenodd;stroke:#000c00;stroke-width:0.193;stroke-linecap:butt;stroke-linejoin:miter;stroke-miterlimit:4;stroke-dasharray:none;stroke-opacity:1"
         id="path2864" /> 
      <path 
         d="M 309.92539,415.50362 L 270.22649,446.55662 L 268.26333,483.2822 L 265.77604,506.91143 L 269.37119,504.28835 C 269.37119,504.28835 266.97312,493.48094 271.19855,478.54112 C 274.80809,465.77895 272.83053,449.51088 272.83053,449.51088 L 313.15124,417.35004 L 309.92539,415.50362 z "
         style="fill:#007f00;fill-opacity:0.99588479;fill-rule:evenodd;stroke:#000c00;stroke-width:0.193;stroke-linecap:butt;stroke-linejoin:miter;stroke-miterlimit:4;stroke-dasharray:none;stroke-opacity:1"
         id="path2866" /> 
      <path 
         d="M 359.67114,408.04176 C 373.81758,404.93265 373.87915,397.47078 386.40948,397.47078 C 417.34511,397.47078 425.95278,393.77397 436.15523,385.03435 C 440.5389,381.27922 441.75162,392.49621 441.75162,392.49621 C 441.75162,392.49621 441.56014,467.49585 448.29182,500.23238 C 450.0185,508.62932 444.52999,507.59607 444.23891,501.31503 C 443.34933,482.11895 436.77705,394.36168 436.77705,394.36168 L 417.50057,399.33625 C 417.50057,399.33625 396.20317,415.50362 372.10757,421.72183 C 357.75718,425.42516 349.72199,409.90722 349.72199,409.90722 C 349.72199,409.90722 350.21238,410.12061 359.67114,408.04176 z "
         style="fill:#006800;fill-opacity:1;fill-rule:evenodd;stroke:#000c00;stroke-width:0.193;stroke-linecap:butt;stroke-linejoin:miter;stroke-miterlimit:4;stroke-dasharray:none;stroke-opacity:1"
         id="path2868" /> 
      <path 
         d="M 350.34381,411.15087 C 351.48354,419.19111 378.30387,439.29051 377.08215,440.37649 L 371.48575,445.35107 C 371.29016,445.52492 356.10299,436.84959 341.6383,419.85637 C 333.98812,410.86889 346.54409,384.34563 350.34381,411.15087 z "
         style="fill:#006500;fill-opacity:0.98765432;fill-rule:evenodd;stroke:#000c00;stroke-width:0.193;stroke-linecap:butt;stroke-linejoin:miter;stroke-miterlimit:4;stroke-dasharray:none;stroke-opacity:1"
         id="path2870" /> 
      <path 
         d="M 375.9362,439.71658 C 377.76421,440.86659 382.44982,443.20388 378.67603,448.57692 C 374.99643,453.81588 373.97304,465.24936 373.97304,465.24936 L 374.04422,500.60968 C 374.04422,500.60968 381.00512,504.84363 380.71718,506.6361 C 380.34711,508.93994 370.86393,501.93685 370.86393,501.93685 L 369.62029,457.7875 L 372.47686,445.99193 C 372.47686,445.99193 371.7979,437.11316 375.9362,439.71658 z "
         style="fill:#006900;fill-opacity:0.98765432;fill-rule:evenodd;stroke:#000c00;stroke-width:0.193;stroke-linecap:butt;stroke-linejoin:miter;stroke-miterlimit:4;stroke-dasharray:none;stroke-opacity:1"
         id="path2872" /> 
      <path 
         d="M 403.84521,451.48575 C 406.83907,454.51186 410.66053,504.42414 410.66053,504.42414 L 417.50057,506.91143 L 412.526,501.31503 C 412.526,501.31503 408.45088,451.97335 407.12139,449.70382 C 406.09946,447.95932 402.38174,450.00652 403.84521,451.48575 z "
         style="fill:#008800;fill-opacity:0.99588479;fill-rule:evenodd;stroke:#000c00;stroke-width:0.193;stroke-linecap:butt;stroke-linejoin:miter;stroke-miterlimit:4;stroke-dasharray:none;stroke-opacity:1"
         id="path2876" /> 
      <path 
         d="M 316.94007,432.96927 C 317.55544,433.37952 314.78626,434.91795 316.52982,436.66151 C 318.27338,438.40507 321.40576,438.99308 323.40923,440.70112 C 325.02404,442.07781 324.78996,441.45 324.48227,443.60381 C 324.17458,445.75762 323.25926,448.78708 322.68356,448.55875 C 320.64325,447.74953 324.90125,446.07405 322.74744,442.68949 C 320.59363,439.30493 314.88882,437.07177 314.06832,435.02052 C 313.24782,432.96927 316.3247,432.55902 316.94007,432.96927 z "
         style="fill:#00a700;fill-opacity:0.98765432;fill-rule:evenodd;stroke:#000c00;stroke-width:0.193;stroke-linecap:butt;stroke-linejoin:miter;stroke-miterlimit:4;stroke-dasharray:none;stroke-opacity:1"
         id="path2888" /> 
      <path 
         d="M 319.25272,381.30342 C 312.10177,382.70252 311.56471,381.28174 306.81628,391.87439 C 302.77444,400.8908 312.1423,440.63983 323.60547,438.51103 C 335.60014,436.28353 336.66373,424.67549 340.39466,407.41994 C 342.99336,395.40095 340.70558,392.18529 335.42009,385.65617 C 329.50588,378.35039 326.40367,379.90432 319.25272,381.30342 z "
         style="fill:#005300;fill-opacity:1;fill-rule:evenodd;stroke:#000c00;stroke-width:0.29300001;stroke-linecap:butt;stroke-linejoin:miter;stroke-miterlimit:4;stroke-dasharray:none;stroke-opacity:1"
         id="path2862" /> 
      <path 
         d="M 322.24674,380.90551 C 314.80218,384.05157 317.13292,396.41511 309.14446,404.7734 C 301.44185,412.83261 315.15959,435.01401 326.64369,432.47673 C 338.6458,429.825 342.52694,400.90504 338.9357,401.08438 C 321.68289,401.94596 323.64876,380.31303 322.24674,380.90551 z "
         style="fill:#417b2a;fill-opacity:0.99588479;fill-rule:evenodd;stroke:#5a5350;stroke-width:0.193;stroke-linecap:butt;stroke-linejoin:miter;stroke-miterlimit:4;stroke-dasharray:none;stroke-opacity:1"
         id="path2920" /> 
      <path 
         d="M 332.75152,429.16205 C 329.64376,430.00678 336.61656,430.72837 335.49612,437.00887 C 334.69622,441.49259 331.39363,440.85109 330.16288,443.41515 C 328.93213,445.97921 327.91424,447.73825 330.4783,445.687 C 333.04236,443.63576 336.44652,441.29289 336.63204,435.50767 C 336.77306,431.11034 333.42826,429.94191 335.86782,423.97121 C 336.37319,422.73436 334.72599,428.62537 332.75152,429.16205 z "
         style="fill:#00a100;fill-opacity:0.99176953;fill-rule:evenodd;stroke:#000c00;stroke-width:0.193;stroke-linecap:butt;stroke-linejoin:miter;stroke-miterlimit:4;stroke-dasharray:none;stroke-opacity:1"
         id="path2890" /> 
      <path 
         d="M 333.46228,388.01019 C 331.92384,389.24094 331.13102,394.08163 333.40617,394.54838 C 335.50776,394.97953 337.17518,392.96995 337.38353,391.02449 C 337.62405,388.77863 335.00071,386.77944 333.46228,388.01019 z "
         style="fill:url(#radialGradient2994);fill-opacity:1;fill-rule:evenodd;stroke:#000c00;stroke-width:0.39300001;stroke-linecap:butt;stroke-linejoin:miter;stroke-miterlimit:4;stroke-dasharray:none;stroke-opacity:1"
         id="path2892" /> 
      <path 
         d="M 308.40785,389.03898 C 306.86941,390.26973 305.89716,394.21327 308.17231,394.68002 C 310.2739,395.11117 311.94132,393.10159 312.14967,391.15613 C 312.39019,388.91027 309.94628,387.80823 308.40785,389.03898 z "
         style="fill:url(#radialGradient3002);fill-opacity:1;fill-rule:evenodd;stroke:#000c00;stroke-width:0.493;stroke-linecap:butt;stroke-linejoin:miter;stroke-miterlimit:4;stroke-dasharray:none;stroke-opacity:1"
         id="path2912" /> 
      <path 
         d="M 321.45281,385.38034 C 321.55537,386.71365 312.70592,348.13951 310.82483,342.44887 C 303.70558,320.91176 292.35679,315.13952 287.27665,315.92272 C 277.27702,317.46436 281.86374,331.94536 281.24837,330.81717 C 280.633,329.68899 279.29969,318.91994 284.53037,316.45844 C 290.38857,313.70164 297.56916,316.06819 306.91551,332.45816 C 313.99231,344.86821 321.35025,384.04703 321.45281,385.38034 z "
         style="fill:#8f6500;fill-opacity:0.94650203;fill-rule:evenodd;stroke:#000000;stroke-width:0.193;stroke-linecap:butt;stroke-linejoin:miter;stroke-miterlimit:4;stroke-dasharray:none;stroke-opacity:1"
         id="path2886" /> 
      <path 
         d="M 311.86062,386.88898 C 311.87743,385.45475 271.57365,353.94446 102.575,468.42184 C 101.30739,469.2805 100.37607,469.22477 102.29362,467.96332 C 258.97934,364.88838 304.61669,382.45689 308.87593,387.44893 C 309.65719,388.36461 311.85882,387.04247 311.86062,386.88898 z "
         style="fill:#8f6500;fill-opacity:1;fill-rule:evenodd;stroke:#000000;stroke-width:0.09930209;stroke-linecap:butt;stroke-linejoin:miter;stroke-miterlimit:4;stroke-dasharray:none;stroke-opacity:1"
         id="path2884" /> 
      <path 
         d="M 337.47026,417.16718 C 335.95503,418.42987 327.7692,422.3046 325.49636,425.84013 C 323.22352,429.37567 322.97099,432.9112 322.46591,437.45689 C 321.96083,442.00258 322.46591,442.63392 323.47606,444.02288 C 324.48621,445.41184 324.61248,437.33062 324.48621,433.41628 C 324.35994,429.50194 324.73875,428.99686 326.00144,427.35536 C 327.26413,425.71386 335.72415,421.04191 337.61819,418.26399 C 339.51223,415.48607 338.98549,415.90449 337.47026,417.16718 z "
         style="fill:#009a00;fill-opacity:1;fill-rule:evenodd;stroke:#000c00;stroke-width:0.093;stroke-linecap:butt;stroke-linejoin:miter;stroke-miterlimit:4;stroke-dasharray:none;stroke-opacity:1"
         id="path2916" /> 
      <path 
         d="M 310.90693,424.10926 C 309.69993,430.79343 316.27976,445.61218 319.09677,439.10479 C 319.36843,438.47725 318.21007,446.23963 317.94653,445.07694 C 316.817,440.0937 310.0807,434.33114 309.88564,432.48253 C 309.54729,429.27563 310.38475,423.36071 309.93422,421.31971 C 309.48369,419.27871 311.47035,420.98914 310.90693,424.10926 z "
         style="fill:#009600;fill-opacity:1;fill-rule:evenodd;stroke:#000c00;stroke-width:0.193;stroke-linecap:butt;stroke-linejoin:miter;stroke-miterlimit:4;stroke-dasharray:none;stroke-opacity:1"
         id="path2918" /> 
    </g> 
    <g 
       id="g2195"
       transform="translate(-205.08594,-58.127644)" /> 
  </g> 
</svg> 